<?xml version="1.0" encoding="utf-8"?>
<!-- Generator: Adobe Illustrator 24.0.0, SVG Export Plug-In . SVG Version: 6.00 Build 0)  -->
<svg version="1.1" id="Layer_1" xmlns="http://www.w3.org/2000/svg" xmlns:xlink="http://www.w3.org/1999/xlink" x="0px" y="0px"
	 viewBox="0 0 79.6 33.9" style="enable-background:new 0 0 79.6 33.9;" xml:space="preserve">
<g>
	<path d="M6.6,0v33.9H0V0H6.6z"/>
	<path d="M31.2,0v6.7h-3.4c-1.4,0-2.7,0.3-4,0.8c-1.2,0.5-2.3,1.3-3.2,2.2c-0.9,0.9-1.7,2-2.2,3.2c-0.5,1.2-0.8,2.6-0.8,4v17h-6.8
		v-17c0-2.4,0.4-4.6,1.3-6.6c0.9-2,2.1-3.8,3.7-5.4c1.6-1.5,3.4-2.7,5.4-3.6C23.4,0.4,25.5,0,27.9,0H31.2z"/>
	<path d="M42,0v33.9h-6.6V0H42z"/>
	<path d="M76.3,0v6.7H55.9c-1,0-1.8,0.3-2.4,1c-0.7,0.7-1,1.5-1,2.4c0,1,0.3,1.8,1,2.5c0.7,0.7,1.5,1,2.4,1h13.6
		c1.4,0,2.7,0.3,4,0.8c1.2,0.5,2.3,1.2,3.2,2.1c0.9,0.9,1.7,2,2.2,3.2c0.5,1.2,0.8,2.6,0.8,4c0,1.4-0.3,2.7-0.8,4
		c-0.5,1.2-1.3,2.3-2.2,3.2c-0.9,0.9-2,1.7-3.2,2.2c-1.2,0.5-2.6,0.8-4,0.8H49.1v-6.7h20.4c1,0,1.8-0.3,2.5-1c0.7-0.7,1-1.5,1-2.5
		c0-1-0.3-1.8-1-2.4c-0.7-0.7-1.5-1-2.5-1H55.9c-1.4,0-2.7-0.3-4-0.8c-1.2-0.5-2.3-1.3-3.2-2.2c-0.9-0.9-1.6-2-2.2-3.2
		c-0.5-1.2-0.8-2.6-0.8-4c0-1.4,0.3-2.7,0.8-4c0.5-1.2,1.2-2.3,2.2-3.2c0.9-0.9,2-1.6,3.2-2.1c1.2-0.5,2.5-0.8,4-0.8H76.3z"/>
</g>
</svg>
