<svg width="28" height="28" viewBox="0 0 28 28" xmlns="http://www.w3.org/2000/svg">
<path fill-rule="evenodd" clip-rule="evenodd" d="M3.97681 7.125V23.0397L7.20048 19.5289C7.22957 19.4972 7.26067 19.4674 7.29359 19.4398C7.63146 19.1557 8.05871 19 8.50011 19H24.0001V7.125H3.97681ZM2.52598 5.67417C2.87761 5.32254 3.35452 5.125 3.85181 5.125H24.1251C24.6224 5.125 25.0993 5.32254 25.4509 5.67417C25.8025 6.02581 26.0001 6.50272 26.0001 7V19.125C26.0001 19.6223 25.8025 20.0992 25.4509 20.4508C25.0993 20.8025 24.6224 21 24.1251 21H8.5649L5.15143 24.7175C5.12235 24.7491 5.09125 24.7789 5.05833 24.8066C4.78501 25.0364 4.45177 25.1833 4.0978 25.2301C3.74383 25.277 3.38384 25.2218 3.06016 25.071C2.73649 24.9203 2.46259 24.6802 2.27067 24.3791C2.07876 24.078 1.97681 23.7284 1.97681 23.3713V7C1.97681 6.50272 2.17435 6.02581 2.52598 5.67417Z"/>
<path d="M8.75 14.625C9.47487 14.625 10.0625 14.0374 10.0625 13.3125C10.0625 12.5876 9.47487 12 8.75 12C8.02513 12 7.4375 12.5876 7.4375 13.3125C7.4375 14.0374 8.02513 14.625 8.75 14.625Z"/>
<path d="M14 14.625C14.7249 14.625 15.3125 14.0374 15.3125 13.3125C15.3125 12.5876 14.7249 12 14 12C13.2751 12 12.6875 12.5876 12.6875 13.3125C12.6875 14.0374 13.2751 14.625 14 14.625Z"/>
<path d="M19.2502 14.625C19.9751 14.625 20.5627 14.0374 20.5627 13.3125C20.5627 12.5876 19.9751 12 19.2502 12C18.5254 12 17.9377 12.5876 17.9377 13.3125C17.9377 14.0374 18.5254 14.625 19.2502 14.625Z"/>
</svg>
