<svg xmlns="http://www.w3.org/2000/svg" width="18" height="18">
    <path fill-rule="evenodd" fill="#999" d="M8.985 5.49c-.339.006-.667.06-.085.157-.75.248-.667.537-.665.843a1.75 1.75 0 0 1-1.75 1.75c-.306-.002-.595-.084-.844-.1-.088.181-.136.506-.136.842 0 1.926 2.195 3.49 3.491 3.49a3.492 3.492 0 0 0 3.491-3.49c0-1.432-1.564-3.491-3.491-3.491l-.011-.001zm8.891 3.044C16.182 5.227 12.827 2.99 8.985 2.99 5.144 2.99 1.788 5.229.94 8.534c-.69.137-.81.292-.81.455 0 .164.12.321.81.457.849 3.307 4.204 5.544 8.045 5.544 3.842 0 7.198-2.238 8.891-5.544a1.003 1.003 0 0 0 0-.912zm-8.891 5.048c-3.146 0-6.03-1.753-7.587-4.592 1.557-2.838 4.441-4.592 7.587-4.592s6.165 1.754 7.588 4.592c-1.413 2.839-4.442 4.592-7.588 4.592z"/>
</svg>
