<svg xmlns="http://www.w3.org/2000/svg" width="18" height="18">
    <path fill-rule="evenodd" d="m10.243 15.22 5.557-4.747c-.6-.117-.651-.357-.833-.534l-.22-.215c-.182-.178-.426-.227-.546-.109l-4.837 4.747c-.968.949-2.564 1.36-4.984-.635-1.814-1.437-.79-2.737-.12-4.578l4.952-5.215c.684-.672 2.174-1.211 3.343-.071 1.147 1.121.678 2.819.013 3.473l-4.125 4.099c.187.373-1.477 1.288-2.111.67-.677-.659.221-1.765.601-2.139l3.388-3.331c.112-.111.099-.302-.03-.428l-.156.343c.365-.621-.325-.633-.438-.27L6.309 9.358c-.68.912-1.74 2.094-.521 3.282 1.104 1.075 2.671.142 3.35-.526l4.147-3.764c.974-.58 2.233-2.974-.033-5.188-2.083-2.033-3.853-1.008-4.855-.025l-5.25 5.154c-1.286 1.262-1.789 4.235.168 6.145 2.646 2.774 5.912 1.781 6.928.784z"/>
</svg>
