<svg xmlns="http://www.w3.org/2000/svg" width="92" height="92">
    <path fill-rule="evenodd" stroke="#E5E5E5" stroke-width="3" fill="#FFF" d="M45.499 3C68.972 3 88 22.27 88 45.499c0 23.473-19.028 42.5-42.501 42.5C22.27 87.999 3 68.972 3 45.499 3 22.27 22.27 3 45.499 3z"/>
    <path fill-rule="evenodd" fill="#E5E5E5" d="M48.103 55.994c.627.783-.583 1.406-2.283 1.406h-.891c-1.231 0-2.253-.623-2.283-1.406L41.37 27.431c-.066-1.734 1.419-3.182 3.317-3.182h1.933c1.341 0 2.825 1.448 2.759 3.182l-1.276 28.563zM45.499 60.8a3.4 3.4 0 0 1 3.4 3.399c0 2.571-1.522 3.4-3.4 3.4-1.877 0-2.509-.829-2.509-3.4 0-1.877.632-3.399 2.509-3.399z"/>
</svg>
