<svg xmlns="http://www.w3.org/2000/svg" width="22" height="22">
    <path fill-rule="evenodd" fill="#FFF" d="m16.742 14.808 5.222 5.422-1.395 1.186-5.221-5.216a8.837 8.837 0 0 1-5.538 1.937c-4.898 0-8.874-3.968-8.874-8.858C.936 4.388 4.912.418 9.81.418c4.897 0 8.873 3.97 8.873 8.861.003 2.01-.583 3.96-1.941 5.529zm-1.978-.028c1.386-1.988 1.95-3.07 1.947-5.501A6.894 6.894 0 0 0 9.81 2.388a6.893 6.893 0 0 0-6.902 6.891c0 4.571 3.088 6.891 6.902 6.891a6.885 6.885 0 0 0 4.806-1.945l.148.555z"/>
</svg>
